<svg width="65" height="65" viewBox="0 0 65 65" fill="none" xmlns="http://www.w3.org/2000/svg">
<g clip-path="url(#clip0)">
<path d="M0.130963 33.2727C0.290179 33.5911 0.555539 33.83 0.887238 33.9361L9.193 36.7887C9.33895 36.8418 9.47163 36.8551 9.61757 36.8551C10.1616 36.8551 10.679 36.5101 10.8648 35.9661L17.3793 16.9531L17.711 17.0725C19.3961 17.6695 21.2801 17.5634 22.8856 16.7806L23.6949 16.3826C24.6635 15.9182 25.7912 15.8386 26.7996 16.1968L41.9517 21.4244C41.7924 22.0082 41.4873 22.6848 40.9566 23.0564C40.3462 23.4809 39.4042 23.4809 38.1703 23.0564L31.3771 20.7345C31.0321 20.615 30.6473 20.6548 30.3289 20.8273C30.0105 20.9998 29.7716 21.305 29.6788 21.6499C29.6655 21.6897 28.7102 25.1925 25.7647 26.7714C23.9072 27.7665 21.5853 27.793 18.8654 26.8643C18.1754 26.6254 17.4324 26.9969 17.1936 27.6869C16.9548 28.3768 17.3263 29.1198 18.0162 29.3586C19.6084 29.9026 21.1209 30.1813 22.5273 30.1813C24.1593 30.1813 25.6586 29.8098 27.0252 29.08C29.6788 27.6471 31.0852 25.1792 31.7353 23.6534L37.3079 25.564C39.3777 26.2672 41.1025 26.1611 42.4426 25.2323C44.5522 23.7728 44.6981 20.9202 44.7114 20.6018C44.7247 20.0312 44.3664 19.5138 43.8224 19.3148L27.6355 13.729C25.9637 13.1584 24.1062 13.2646 22.5141 14.0474L21.7047 14.4454C20.7229 14.9231 19.5818 14.9894 18.5602 14.6312L17.2201 14.1535C17.1405 14.1005 17.0609 14.0607 16.968 14.0341L8.70208 11.155C8.01215 10.9161 7.26914 11.2876 7.03032 11.9776L0.0646231 32.2776C-0.0415208 32.596 -0.0149849 32.9543 0.130963 33.2727ZM9.10012 14.0607L14.9115 16.0509L8.80823 33.8698L2.99685 31.8796L9.10012 14.0607Z" fill="#A11D54"/>
<path d="M13.8103 45.3068C14.4604 46.6336 15.7607 47.4031 17.1405 47.4562C17.1405 48.0267 17.2732 48.6105 17.5253 49.1412C17.9764 50.07 18.7592 50.7599 19.7411 51.0916C20.1524 51.2376 20.5769 51.3039 20.9883 51.3039C21.572 51.3039 22.1426 51.1712 22.6733 50.9059L23.3632 50.5609C23.4163 50.959 23.5357 51.3703 23.7215 51.755C24.1726 52.6838 24.9554 53.3737 25.9372 53.7054C26.3485 53.8514 26.7731 53.9177 27.1844 53.9177C27.7682 53.9177 28.3387 53.785 28.8694 53.5197L43.9551 46.1294C47.3252 44.4842 50.4299 42.3613 53.1897 39.8271L56.5597 36.7357L64.2684 32.9676C64.9186 32.6491 65.1839 31.8663 64.8655 31.2162L55.4718 11.9378C55.3125 11.6194 55.0472 11.3805 54.7155 11.2744C54.3838 11.155 54.0255 11.1815 53.7071 11.3407L45.8259 15.2017C45.1758 15.5202 44.9104 16.303 45.2289 16.9531L54.2246 35.3425L51.4383 37.9033C48.8643 40.265 45.9586 42.2419 42.8274 43.781L27.7417 51.1712C27.4498 51.3172 27.1181 51.3305 26.7996 51.2243C26.4945 51.1182 26.2424 50.8926 26.0964 50.6007C25.9505 50.3088 25.9372 49.9771 26.0434 49.6587C26.1495 49.3535 26.3751 49.1014 26.667 48.9555L35.1054 44.8291C35.7555 44.5107 36.0209 43.7279 35.7025 43.0778C35.384 42.4276 34.6012 42.1623 33.9511 42.4807L25.5126 46.6071L21.5322 48.5575C21.2403 48.7034 20.9086 48.7167 20.5902 48.6105C20.285 48.5044 20.033 48.2788 19.887 47.9869C19.7411 47.695 19.7278 47.3633 19.8339 47.0449C19.9401 46.7397 20.1656 46.4876 20.4575 46.3417L32.5579 40.4242C33.2081 40.1057 33.4734 39.3229 33.155 38.6728C32.8366 38.0227 32.0538 37.7573 31.4036 38.0757L17.8039 44.723C17.1936 45.0149 16.4639 44.7628 16.1587 44.1657C16.0128 43.8739 15.9995 43.5421 16.1056 43.2237C16.2118 42.9186 16.4373 42.6665 16.7292 42.5205L22.0895 39.8935L29.0552 36.4836C29.7053 36.1651 29.9707 35.3823 29.6523 34.7322C29.3338 34.0821 28.551 33.8167 27.9009 34.1351L17.0609 39.4423C16.4506 39.7342 15.7209 39.4821 15.4157 38.8851C15.1238 38.2748 15.3759 37.545 15.9729 37.2399L21.7313 34.427C22.3814 34.1086 22.6468 33.3258 22.3283 32.6757C22.0099 32.0255 21.2271 31.7602 20.5769 32.0786L14.8186 34.8914C12.908 35.8202 12.112 38.1421 13.054 40.0527C13.3194 40.5967 13.6909 41.0345 14.142 41.3927C13.3459 42.4674 13.1601 43.9933 13.8103 45.3068ZM48.1611 16.9796L53.6806 14.273L61.9598 31.1897L56.4403 33.8963L48.1611 16.9796Z" fill="#535353"/>
</g>
<defs>
<clipPath id="clip0">
<rect width="65" height="65" fill="white"/>
</clipPath>
</defs>
</svg>
