<svg width="20" height="20" viewBox="0 0 20 20" fill="none" xmlns="http://www.w3.org/2000/svg">
<path d="M10 0C6.25732 0 3.21237 3.0449 3.21237 6.7876C3.21237 8.2916 4.09784 10.5789 5.99901 13.9858C7.29633 16.3105 8.58767 18.274 8.64215 18.3567L9.5755 19.7715C9.6696 19.9142 9.82905 20 10 20C10.171 20 10.3304 19.9142 10.4245 19.7715L11.3578 18.3568C11.4118 18.275 12.6937 16.3285 14.001 13.9858C15.9022 10.5791 16.7876 8.29176 16.7876 6.7876C16.7876 3.0449 13.7427 0 10 0ZM13.1129 13.4902C11.8238 15.8 10.5621 17.7161 10.5089 17.7966L10 18.5679L9.49128 17.7968C9.43782 17.7156 8.16646 15.7824 6.88716 13.4902C5.12367 10.3299 4.2295 8.07483 4.2295 6.7876C4.2295 3.60575 6.81812 1.01712 10 1.01712C13.1819 1.01712 15.7705 3.60575 15.7705 6.7876C15.7705 8.07499 14.8763 10.33 13.1129 13.4902Z" fill="#A5A5A5"/>
<path d="M9.99999 2.98193C7.92486 2.98193 6.23663 4.67019 6.23663 6.74529C6.23663 8.82038 7.92486 10.5086 9.99999 10.5086C12.0751 10.5086 13.7634 8.82038 13.7634 6.74529C13.7634 4.67019 12.0751 2.98193 9.99999 2.98193ZM9.99999 9.49152C8.4857 9.49152 7.25376 8.25958 7.25376 6.74529C7.25376 5.23099 8.4857 3.99906 9.99999 3.99906C11.5143 3.99906 12.7462 5.23099 12.7462 6.74529C12.7462 8.25958 11.5143 9.49152 9.99999 9.49152Z" fill="#A5A5A5"/>
</svg>
