<svg width="152" height="65" viewBox="0 0 152 65" fill="none" xmlns="http://www.w3.org/2000/svg">
<path d="M0.858001 65C0.676241 65.0001 0.499153 64.9424 0.352294 64.8353C0.205435 64.7282 0.0963996 64.5772 0.0409228 64.4042C-0.014554 64.2311 -0.0136032 64.0448 0.0436381 63.8723C0.100879 63.6998 0.211451 63.5499 0.359395 63.4444L37.5388 37.0049C37.739 36.8622 37.9044 36.676 38.0224 36.4602C38.1404 36.2444 38.208 36.0047 38.2202 35.7591C38.2323 35.5135 38.1887 35.2683 38.0926 35.0419C37.9964 34.8155 37.8503 34.6139 37.6651 34.4521L9.21796 9.69796C8.79564 9.33871 8.48147 8.86917 8.3105 8.34175C8.12219 7.72711 8.14306 7.06738 8.36983 6.46587C8.5966 5.86437 9.01646 5.35506 9.56366 5.01771L17.5613 0.111426C17.7549 0.00174753 17.9835 -0.0283929 18.199 0.0273698C18.4144 0.0831326 18.5997 0.220433 18.7157 0.410273C18.8318 0.600113 18.8695 0.827631 18.821 1.04477C18.7724 1.26192 18.6413 1.45169 18.4555 1.574L10.4512 6.46367C10.2238 6.6014 10.0498 6.81207 9.9574 7.06136C9.86505 7.31065 9.85983 7.58386 9.9426 7.83649C10.0218 8.05848 10.1597 8.25489 10.3415 8.4049L38.7919 33.1557C39.1737 33.4873 39.4752 33.9013 39.6737 34.3663C39.8722 34.8314 39.9625 35.3355 39.9379 35.8405C39.9132 36.3456 39.7742 36.8385 39.5314 37.282C39.2886 37.7255 38.9482 38.1082 38.536 38.401L1.35328 64.8404C1.2088 64.9438 1.03567 64.9996 0.858001 65ZM8.69941 52.1094C8.06609 52.1059 7.45991 51.8518 7.01332 51.4027C6.56674 50.9537 6.31606 50.3461 6.31607 49.7127V18.3338C6.31548 17.8786 6.4447 17.4327 6.68858 17.0484C6.93246 16.6641 7.28088 16.3572 7.69297 16.1639C8.10506 15.9706 8.56373 15.8988 9.01518 15.957C9.46662 16.0152 9.89212 16.2009 10.2418 16.4923L30.7843 33.5779C31.068 33.8135 31.2934 34.1115 31.4429 34.4486C31.5924 34.7857 31.662 35.1528 31.6463 35.5212C31.6305 35.8897 31.5298 36.2495 31.352 36.5726C31.1743 36.8957 30.9242 37.1734 30.6215 37.3839L10.0789 51.6772C9.67562 51.9596 9.19501 52.1105 8.70273 52.1094H8.69941ZM8.69941 17.6524C8.59606 17.6527 8.49399 17.6753 8.40025 17.7189C8.28205 17.772 8.18195 17.8585 8.11227 17.9677C8.04258 18.077 8.00634 18.2042 8.00801 18.3338V49.7127C8.00238 49.839 8.03287 49.9643 8.0959 50.0739C8.15893 50.1834 8.2519 50.2728 8.36389 50.3314C8.47588 50.39 8.60226 50.4154 8.72822 50.4048C8.85417 50.3941 8.97448 50.3478 9.07503 50.2712L29.6176 35.9778C29.7061 35.92 29.7796 35.842 29.832 35.7501C29.8843 35.6583 29.914 35.5552 29.9186 35.4496C29.9231 35.344 29.9024 35.2388 29.8581 35.1428C29.8139 35.0468 29.7474 34.9627 29.6641 34.8975L9.12156 17.8119C9.00639 17.7133 8.86095 17.657 8.70938 17.6524H8.69941Z" fill="white"/>
<path d="M61.2431 32.0123H67.2025C68.3171 32.0473 69.4251 31.8271 70.4416 31.3685C71.4582 30.9098 72.3564 30.2249 73.0678 29.366C74.363 27.7212 75.0508 25.6798 75.0147 23.5865C75.0147 19.5291 72.5606 15.1607 67.2025 15.1607H61.2431C61.121 15.1558 60.9993 15.1753 60.8849 15.2182C60.7705 15.261 60.6659 15.3262 60.5771 15.41C60.4883 15.4939 60.4172 15.5946 60.3679 15.7063C60.3186 15.818 60.2921 15.9385 60.29 16.0606V31.0839C60.2916 31.2074 60.3176 31.3294 60.3663 31.4429C60.4151 31.5565 60.4857 31.6593 60.5742 31.7455C60.6627 31.8317 60.7673 31.8996 60.8821 31.9454C60.9969 31.9912 61.1195 32.0139 61.2431 32.0123ZM61.6521 30.6953V16.4492H67.1984C71.624 16.4492 73.6445 20.1303 73.6445 23.5743C73.6721 25.3486 73.0951 27.0796 72.0084 28.4825C71.4289 29.1983 70.6917 29.7705 69.8545 30.1544C69.0172 30.5382 68.1026 30.7233 67.182 30.6953H61.6521Z" fill="white"/>
<path d="M86.9293 15.0708C86.8767 14.9583 86.7928 14.8634 86.6876 14.7974C86.5824 14.7314 86.4604 14.6971 86.3363 14.6986C86.2088 14.6968 86.0835 14.7307 85.9743 14.7965C85.8652 14.8623 85.7766 14.9573 85.7186 15.0708L77.5383 31.1779C77.4794 31.2807 77.4485 31.397 77.4485 31.5154C77.4485 31.6337 77.4794 31.7501 77.5383 31.8528C77.6029 31.9553 77.6922 32.04 77.7979 32.0993C77.9036 32.1586 78.0224 32.1906 78.1436 32.1923C78.266 32.1926 78.3859 32.1581 78.4894 32.093C78.593 32.0278 78.6759 31.9346 78.7285 31.8242L80.9781 27.4027H91.7026L93.9195 31.8119C93.9724 31.9209 94.0549 32.0129 94.1576 32.0773C94.2603 32.1416 94.3791 32.1758 94.5003 32.1759C94.6214 32.1742 94.7403 32.1422 94.846 32.083C94.9517 32.0237 95.0409 31.9389 95.1056 31.8364C95.1644 31.7337 95.1954 31.6174 95.1954 31.499C95.1954 31.3806 95.1644 31.2643 95.1056 31.1616L86.9293 15.0708ZM91.0195 26.1143H81.6121L86.3485 16.7927L91.0195 26.1143Z" fill="white"/>
<path d="M95.1997 16.4205H101.564V31.3702C101.558 31.4654 101.572 31.5609 101.605 31.6507C101.637 31.7405 101.687 31.8228 101.752 31.8927C101.817 31.9627 101.895 32.0187 101.983 32.0576C102.07 32.0964 102.164 32.1172 102.259 32.1187C102.356 32.1182 102.452 32.0983 102.541 32.0602C102.631 32.0221 102.711 31.9665 102.779 31.8968C102.846 31.827 102.899 31.7445 102.934 31.6541C102.969 31.5637 102.986 31.4671 102.983 31.3702L102.959 16.4246H109.352C109.444 16.4373 109.537 16.4302 109.627 16.4037C109.716 16.3771 109.798 16.3318 109.868 16.2708C109.938 16.2097 109.994 16.1344 110.033 16.0498C110.071 15.9652 110.091 15.8733 110.091 15.7804C110.091 15.6875 110.071 15.5956 110.033 15.511C109.994 15.4264 109.938 15.3511 109.868 15.29C109.798 15.229 109.716 15.1837 109.627 15.1571C109.537 15.1306 109.444 15.1235 109.352 15.1362H95.1997C95.1076 15.1235 95.0139 15.1306 94.9248 15.1571C94.8358 15.1837 94.7534 15.229 94.6834 15.29C94.6133 15.3511 94.5571 15.4264 94.5186 15.511C94.4801 15.5956 94.4602 15.6875 94.4602 15.7804C94.4602 15.8733 94.4801 15.9652 94.5186 16.0498C94.5571 16.1344 94.6133 16.2097 94.6834 16.2708C94.7534 16.3318 94.8358 16.3771 94.9248 16.4037C95.0139 16.4302 95.1076 16.4373 95.1997 16.4246V16.4205Z" fill="white"/>
<path d="M128.976 24.56V15.5984C128.978 15.51 128.961 15.4223 128.927 15.3406C128.894 15.2589 128.844 15.1848 128.781 15.1229C128.718 15.061 128.643 15.0125 128.56 14.9803C128.478 14.9482 128.39 14.933 128.302 14.9358C128.211 14.9336 128.12 14.9498 128.035 14.9835C127.951 15.0172 127.874 15.0676 127.809 15.1318C127.745 15.196 127.694 15.2726 127.66 15.357C127.625 15.4414 127.609 15.5319 127.61 15.6229V24.56C127.61 28.8547 124.338 30.8139 121.295 30.8139C118.252 30.8139 114.98 28.8588 114.98 24.56V15.6229C114.983 15.5326 114.967 15.4427 114.934 15.3586C114.901 15.2745 114.851 15.198 114.788 15.1338C114.724 15.0695 114.648 15.0188 114.565 14.9848C114.481 14.9507 114.391 14.9341 114.301 14.9358C114.213 14.9335 114.126 14.9491 114.045 14.9816C113.963 15.0141 113.889 15.0629 113.827 15.1248C113.765 15.1868 113.717 15.2608 113.684 15.3422C113.652 15.4236 113.636 15.5108 113.638 15.5984V24.56C113.638 29.7954 117.614 32.18 121.307 32.18C125.001 32.18 128.976 29.7954 128.976 24.56Z" fill="white"/>
<path d="M150.495 15.0748C150.363 15.0791 150.233 15.1166 150.119 15.1837C150.005 15.2509 149.909 15.3457 149.841 15.4593L142.969 26.237L136.053 15.4675C135.992 15.349 135.901 15.2487 135.789 15.1768C135.677 15.1049 135.548 15.0641 135.415 15.0585C135.322 15.0605 135.231 15.0811 135.147 15.1192C135.063 15.1573 134.988 15.212 134.926 15.2801C134.863 15.3481 134.815 15.4281 134.785 15.5151C134.754 15.6021 134.742 15.6945 134.748 15.7865V31.3292C134.748 31.5137 134.821 31.6905 134.951 31.8209C135.082 31.9513 135.259 32.0246 135.443 32.0246C135.628 32.0246 135.804 31.9513 135.935 31.8209C136.065 31.6905 136.139 31.5137 136.139 31.3292V18.1302L142.274 27.7176C142.339 27.841 142.437 27.9443 142.557 28.0163C142.676 28.0884 142.813 28.1265 142.953 28.1266C143.091 28.1256 143.226 28.087 143.343 28.0149C143.461 27.9429 143.556 27.84 143.619 27.7176L149.755 18.0648V31.3415C149.751 31.4404 149.769 31.539 149.806 31.6306C149.843 31.7223 149.9 31.805 149.972 31.8732C150.073 31.966 150.199 32.027 150.335 32.0486C150.471 32.0703 150.61 32.0517 150.736 31.9951C150.861 31.9385 150.967 31.8465 151.04 31.7303C151.114 31.6142 151.152 31.479 151.15 31.3415V15.7988C151.154 15.7082 151.141 15.6175 151.111 15.532C151.081 15.4465 151.034 15.3678 150.973 15.3005C150.912 15.2332 150.839 15.1786 150.757 15.1398C150.675 15.1011 150.586 15.079 150.495 15.0748Z" fill="white"/>
<path d="M67.7055 47.1215C64.5151 46.8515 61.5047 46.5938 61.5047 43.9884C61.5016 43.7161 61.5588 43.4465 61.6724 43.199C62.2696 41.4566 64.7196 40.6794 66.6134 40.5485C66.7238 40.5485 66.8302 40.5485 66.9365 40.5485C67.0429 40.5485 67.1328 40.5485 67.2269 40.5485C70.5891 40.5485 72.6055 41.4157 73.2231 43.1213C73.2679 43.2587 73.3548 43.3785 73.4716 43.4637C73.5883 43.5489 73.729 43.5951 73.8735 43.5957C73.9762 43.5972 74.0777 43.5733 74.169 43.5262C74.2603 43.4791 74.3386 43.4103 74.397 43.3258C74.4587 43.2274 74.4941 43.1148 74.4998 42.9987C74.5055 42.8827 74.4814 42.7672 74.4297 42.6632C73.3458 39.6978 69.4356 39.256 67.1983 39.256C66.4558 39.2598 65.7151 39.331 64.9855 39.4687C61.9465 40.1191 60.1304 41.8083 60.1304 43.9679C60.1304 47.8127 64.0775 48.1318 67.5582 48.4099C70.7118 48.6635 73.6935 48.9007 73.6935 51.4939C73.6935 55.1751 68.1145 55.2937 67.4805 55.2937C67.088 55.2928 66.6959 55.2668 66.3066 55.216C64.1347 55.0114 61.6193 54.1402 61.0876 52.2956C61.0542 52.1528 60.9732 52.0257 60.858 51.935C60.7428 51.8443 60.6002 51.7955 60.4536 51.7966C60.3482 51.7962 60.2441 51.8205 60.1497 51.8673C60.0553 51.9142 59.9731 51.9824 59.9096 52.0665C59.8494 52.1476 59.8095 52.2418 59.7932 52.3414C59.7768 52.441 59.7845 52.5431 59.8155 52.6391C60.8094 56.2467 65.9508 56.5289 67.4887 56.5289C71.1699 56.5289 75.0678 55.1996 75.0678 51.4653C75.0678 47.7309 71.1576 47.4119 67.7055 47.1215Z" fill="white"/>
<path d="M91.4491 40.1354V47.5305H80.8146V40.1354C80.8146 39.9543 80.7426 39.7805 80.6145 39.6524C80.4864 39.5243 80.3127 39.4524 80.1315 39.4524C79.9504 39.4524 79.7766 39.5243 79.6485 39.6524C79.5204 39.7805 79.4485 39.9543 79.4485 40.1354V55.6004C79.4485 55.7816 79.5204 55.9553 79.6485 56.0834C79.7766 56.2115 79.9504 56.2835 80.1315 56.2835C80.3127 56.2835 80.4864 56.2115 80.6145 56.0834C80.7426 55.9553 80.8146 55.7816 80.8146 55.6004V48.7944L91.4491 48.8189V55.5963C91.4491 55.7808 91.5224 55.9576 91.6528 56.088C91.7832 56.2184 91.96 56.2917 92.1444 56.2917C92.3288 56.2917 92.5057 56.2184 92.6361 56.088C92.7665 55.9576 92.8398 55.7808 92.8398 55.5963V40.1354C92.8398 39.951 92.7665 39.7742 92.6361 39.6438C92.5057 39.5134 92.3288 39.4401 92.1444 39.4401C91.96 39.4401 91.7832 39.5134 91.6528 39.6438C91.5224 39.7742 91.4491 39.951 91.4491 40.1354Z" fill="white"/>
<path d="M106.063 39.3256C106.011 39.2131 105.927 39.1182 105.821 39.0522C105.716 38.9862 105.594 38.9519 105.47 38.9534C105.343 38.9516 105.217 38.9856 105.108 39.0513C104.999 39.1171 104.911 39.2121 104.853 39.3256L96.6722 55.4327C96.6134 55.5355 96.5824 55.6518 96.5824 55.7702C96.5824 55.8886 96.6134 56.0049 96.6722 56.1076C96.7369 56.2101 96.8261 56.2949 96.9318 56.3541C97.0375 56.4134 97.1563 56.4454 97.2775 56.4471C97.3998 56.4469 97.5195 56.4123 97.6229 56.3472C97.7264 56.2821 97.8094 56.1891 97.8624 56.079L100.075 51.6739H110.8L113.017 56.0831C113.07 56.1921 113.152 56.2841 113.255 56.3485C113.357 56.4128 113.476 56.447 113.597 56.4471C113.719 56.4454 113.837 56.4134 113.943 56.3541C114.049 56.2949 114.138 56.2101 114.203 56.1076C114.262 56.0049 114.293 55.8886 114.293 55.7702C114.293 55.6518 114.262 55.5355 114.203 55.4327L106.063 39.3256ZM110.153 50.3691H100.746L105.462 41.0353L110.153 50.3691Z" fill="white"/>
<path d="M124.71 39.3869H118.878C118.786 39.3858 118.695 39.4031 118.61 39.4376C118.526 39.4722 118.449 39.5233 118.384 39.5881C118.319 39.6529 118.268 39.73 118.233 39.8149C118.199 39.8997 118.181 39.9906 118.183 40.0823V55.674C118.18 55.7683 118.199 55.8619 118.237 55.9482C118.276 56.0344 118.332 56.1112 118.403 56.173C118.531 56.281 118.694 56.3391 118.862 56.3367C118.953 56.3389 119.043 56.3227 119.128 56.289C119.212 56.2553 119.289 56.2048 119.354 56.1406C119.418 56.0764 119.469 55.9998 119.503 55.9154C119.538 55.831 119.554 55.7405 119.553 55.6495V51.183H124.739C128.862 51.183 131.525 48.9416 131.525 45.4772C131.521 42.4505 129.181 39.3869 124.71 39.3869ZM130.114 45.4854C130.131 46.0186 130.041 46.5498 129.848 47.0474C129.655 47.5449 129.365 47.9986 128.993 48.3812C128.04 49.3547 126.563 49.8701 124.723 49.8701H119.549V40.704H124.735C128.203 40.704 130.114 43.1663 130.114 45.4854Z" fill="white"/>
<path d="M148.699 40.704C148.786 40.7067 148.873 40.6919 148.954 40.6604C149.035 40.6289 149.109 40.5814 149.171 40.5206C149.233 40.4599 149.283 40.3873 149.316 40.307C149.35 40.2268 149.367 40.1406 149.366 40.0536C149.368 39.969 149.352 39.8849 149.321 39.8065C149.289 39.7281 149.242 39.6569 149.181 39.5972C149.121 39.5376 149.05 39.4907 148.971 39.4595C148.893 39.4283 148.808 39.4133 148.724 39.4155H137.19C137.066 39.4123 136.942 39.4339 136.827 39.4791C136.711 39.5242 136.606 39.5921 136.517 39.6787C136.428 39.7652 136.358 39.8687 136.31 39.9829C136.261 40.0972 136.237 40.22 136.237 40.344V55.3182C136.234 55.4441 136.257 55.5693 136.303 55.6862C136.35 55.8031 136.42 55.9092 136.509 55.9983C136.599 56.0874 136.705 56.1574 136.822 56.2044C136.938 56.2513 137.064 56.274 137.19 56.2712H148.695C148.873 56.2712 149.044 56.2005 149.17 56.0747C149.295 55.9489 149.366 55.7783 149.366 55.6004C149.366 55.4225 149.295 55.2519 149.17 55.1261C149.044 55.0003 148.873 54.9296 148.695 54.9296H137.603V48.5653H148.184C148.273 48.5724 148.362 48.561 148.447 48.5318C148.531 48.5027 148.608 48.4564 148.674 48.3959C148.739 48.3354 148.792 48.2619 148.827 48.1802C148.863 48.0985 148.882 48.0103 148.882 47.9211C148.882 47.8319 148.863 47.7437 148.827 47.662C148.792 47.5802 148.739 47.5068 148.674 47.4463C148.608 47.3858 148.531 47.3395 148.447 47.3103C148.362 47.2812 148.273 47.2698 148.184 47.2769H137.603V40.704H148.699Z" fill="white"/>
</svg>
