<svg width="205" height="88" viewBox="0 0 205 88" fill="none" xmlns="http://www.w3.org/2000/svg">
<path d="M1.16368 88C0.917161 88.0001 0.676983 87.922 0.477804 87.7771C0.278624 87.6321 0.130743 87.4277 0.0555022 87.1933C-0.0197391 86.959 -0.0184495 86.7068 0.0591848 86.4733C0.136819 86.2397 0.286783 86.0368 0.487435 85.8939L50.9125 50.099C51.1841 49.9057 51.4084 49.6536 51.5684 49.3615C51.7285 49.0694 51.8202 48.7449 51.8367 48.4123C51.8531 48.0798 51.794 47.7478 51.6636 47.4414C51.5332 47.1349 51.335 46.8619 51.0838 46.6428L12.502 13.1295C11.9292 12.6432 11.5031 12.0075 11.2712 11.2934C11.0158 10.4613 11.0441 9.56815 11.3517 8.7538C11.6593 7.93945 12.2287 7.24992 12.9709 6.7932L23.8178 0.150853C24.0803 0.00236589 24.3904 -0.0384397 24.6826 0.0370545C24.9747 0.112549 25.2261 0.298432 25.3835 0.555446C25.5409 0.812461 25.5921 1.12048 25.5262 1.41446C25.4603 1.70844 25.2826 1.96536 25.0305 2.13096L14.1746 8.75081C13.8662 8.93728 13.6301 9.22249 13.5049 9.55999C13.3796 9.89749 13.3725 10.2674 13.4848 10.6094C13.5923 10.9099 13.7792 11.1758 14.0258 11.3789L52.6121 44.8877C53.1299 45.3367 53.5388 45.8971 53.808 46.5267C54.0772 47.1564 54.1997 47.8388 54.1663 48.5226C54.1329 49.2063 53.9444 49.8736 53.615 50.4741C53.2857 51.0746 52.8241 51.5926 52.265 51.9891L1.83541 87.784C1.63945 87.924 1.40464 87.9995 1.16368 88ZM11.7987 70.5481C10.9398 70.5433 10.1176 70.1994 9.51192 69.5914C8.90624 68.9834 8.56625 68.1608 8.56627 67.3034V24.8212C8.56546 24.2049 8.74072 23.6012 9.07148 23.0809C9.40225 22.5606 9.8748 22.1452 10.4337 21.8835C10.9926 21.6218 11.6147 21.5246 12.227 21.6033C12.8392 21.6821 13.4163 21.9335 13.8905 22.328L41.7517 45.4592C42.1364 45.7783 42.4421 46.1817 42.6449 46.6381C42.8477 47.0945 42.9421 47.5915 42.9207 48.0903C42.8993 48.5891 42.7627 49.0762 42.5216 49.5137C42.2805 49.9511 41.9414 50.327 41.5308 50.612L13.6696 69.963C13.1227 70.3453 12.4709 70.5496 11.8032 70.5481H11.7987ZM11.7987 23.8986C11.6585 23.899 11.5201 23.9297 11.393 23.9886C11.2326 24.0605 11.0969 24.1776 11.0024 24.3256C10.9079 24.4735 10.8587 24.6457 10.861 24.8212V67.3034C10.8533 67.4744 10.8947 67.644 10.9802 67.7923C11.0657 67.9406 11.1918 68.0616 11.3436 68.1409C11.4955 68.2203 11.6669 68.2548 11.8378 68.2403C12.0086 68.2259 12.1718 68.1631 12.3081 68.0594L40.1693 48.7084C40.2894 48.6302 40.3891 48.5245 40.4601 48.4002C40.531 48.2758 40.5713 48.1363 40.5775 47.9933C40.5836 47.8503 40.5555 47.7079 40.4955 47.5779C40.4355 47.4479 40.3453 47.3341 40.2324 47.2458L12.3713 24.1146C12.215 23.9811 12.0178 23.9049 11.8122 23.8986H11.7987Z" fill="white"/>
<path d="M83.0617 43.3396H91.1442C92.656 43.387 94.1587 43.0889 95.5374 42.4679C96.9161 41.847 98.1344 40.9197 99.0992 39.7569C100.856 37.5301 101.789 34.7663 101.74 31.9324C101.74 26.4392 98.4113 20.5252 91.1442 20.5252H83.0617C82.8962 20.5185 82.7311 20.5449 82.576 20.6029C82.4209 20.6609 82.2789 20.7492 82.1585 20.8627C82.0381 20.9762 81.9416 21.1126 81.8748 21.2638C81.8079 21.4151 81.772 21.5781 81.7692 21.7434V42.0826C81.7713 42.2499 81.8065 42.4151 81.8726 42.5688C81.9388 42.7225 82.0346 42.8616 82.1546 42.9784C82.2746 43.0951 82.4165 43.1871 82.5722 43.2491C82.7278 43.311 82.8941 43.3418 83.0617 43.3396ZM83.6164 41.5566V22.2695H91.1387C97.1409 22.2695 99.8814 27.2532 99.8814 31.9158C99.9188 34.318 99.1363 36.6614 97.6624 38.5608C96.8764 39.5299 95.8766 40.3045 94.7411 40.8242C93.6056 41.3439 92.3651 41.5945 91.1165 41.5566H83.6164Z" fill="white"/>
<path d="M117.899 20.4034C117.828 20.2512 117.714 20.1227 117.571 20.0333C117.429 19.9439 117.263 19.8975 117.095 19.8995C116.922 19.8971 116.752 19.9431 116.604 20.0321C116.456 20.1212 116.336 20.2498 116.257 20.4034L105.162 42.21C105.083 42.3491 105.041 42.5066 105.041 42.6669C105.041 42.8272 105.083 42.9846 105.162 43.1237C105.25 43.2625 105.371 43.3772 105.515 43.4575C105.658 43.5377 105.819 43.581 105.983 43.5833C106.149 43.5837 106.312 43.5371 106.452 43.4489C106.593 43.3607 106.705 43.2345 106.777 43.085L109.828 37.0989H124.373L127.38 43.0683C127.451 43.216 127.563 43.3405 127.703 43.4276C127.842 43.5147 128.003 43.561 128.167 43.5612C128.332 43.5588 128.493 43.5156 128.636 43.4353C128.78 43.3551 128.901 43.2403 128.988 43.1016C129.068 42.9625 129.11 42.805 129.11 42.6447C129.11 42.4845 129.068 42.327 128.988 42.1879L117.899 20.4034ZM123.447 35.3546H110.688L117.112 22.7347L123.447 35.3546Z" fill="white"/>
<path d="M129.116 22.231H137.748V42.4705C137.74 42.5995 137.759 42.7286 137.803 42.8502C137.847 42.9718 137.915 43.0833 138.003 43.178C138.091 43.2726 138.197 43.3485 138.315 43.4011C138.434 43.4537 138.561 43.4818 138.691 43.4838C138.822 43.4831 138.952 43.4562 139.073 43.4046C139.194 43.353 139.304 43.2778 139.395 43.1834C139.487 43.089 139.559 42.9773 139.606 42.8549C139.654 42.7325 139.676 42.6018 139.673 42.4705L139.639 22.2365H148.31C148.435 22.2537 148.562 22.2441 148.683 22.2081C148.803 22.1722 148.915 22.1109 149.01 22.0282C149.105 21.9456 149.181 21.8436 149.234 21.729C149.286 21.6145 149.313 21.4902 149.313 21.3643C149.313 21.2385 149.286 21.1142 149.234 20.9997C149.181 20.8851 149.105 20.7831 149.01 20.7005C148.915 20.6178 148.803 20.5565 148.683 20.5206C148.562 20.4846 148.435 20.475 148.31 20.4922H129.116C128.991 20.475 128.864 20.4846 128.743 20.5206C128.622 20.5565 128.511 20.6178 128.416 20.7005C128.321 20.7831 128.245 20.8851 128.192 20.9997C128.14 21.1142 128.113 21.2385 128.113 21.3643C128.113 21.4902 128.14 21.6145 128.192 21.729C128.245 21.8436 128.321 21.9456 128.416 22.0282C128.511 22.1109 128.622 22.1722 128.743 22.2081C128.864 22.2441 128.991 22.2537 129.116 22.2365V22.231Z" fill="white"/>
<path d="M174.926 33.2506V21.118C174.928 20.9983 174.905 20.8796 174.859 20.769C174.814 20.6583 174.746 20.5581 174.661 20.4742C174.575 20.3904 174.473 20.3247 174.362 20.2812C174.25 20.2377 174.131 20.2171 174.011 20.2209C173.887 20.2179 173.765 20.2398 173.65 20.2855C173.535 20.3311 173.431 20.3994 173.343 20.4863C173.256 20.5732 173.187 20.6769 173.14 20.7912C173.094 20.9055 173.071 21.0279 173.073 21.1512V33.2506C173.073 39.065 168.636 41.7174 164.508 41.7174C160.381 41.7174 155.943 39.0705 155.943 33.2506V21.1512C155.947 21.0289 155.926 20.9072 155.881 20.7933C155.836 20.6795 155.769 20.5759 155.683 20.4889C155.596 20.4019 155.493 20.3333 155.38 20.2872C155.266 20.2412 155.145 20.2186 155.022 20.2209C154.903 20.2179 154.785 20.239 154.675 20.283C154.564 20.327 154.464 20.3929 154.38 20.4769C154.296 20.5608 154.23 20.6609 154.186 20.7711C154.142 20.8813 154.121 20.9993 154.124 21.118V33.2506C154.124 40.3386 159.516 43.5669 164.525 43.5669C169.534 43.5669 174.926 40.3386 174.926 33.2506Z" fill="white"/>
<path d="M204.111 20.4091C203.931 20.4149 203.756 20.4656 203.601 20.5566C203.446 20.6475 203.316 20.7758 203.223 20.9296L193.904 35.5209L184.523 20.9407C184.441 20.7802 184.317 20.6444 184.165 20.5472C184.013 20.4499 183.838 20.3946 183.658 20.387C183.533 20.3897 183.41 20.4177 183.296 20.4692C183.182 20.5208 183.079 20.5949 182.995 20.687C182.91 20.7791 182.845 20.8873 182.804 21.0052C182.762 21.123 182.745 21.248 182.754 21.3726V42.4151C182.754 42.6648 182.853 42.9042 183.03 43.0807C183.207 43.2573 183.447 43.3565 183.697 43.3565C183.947 43.3565 184.187 43.2573 184.364 43.0807C184.54 42.9042 184.64 42.6648 184.64 42.4151V24.5456L192.961 37.5255C193.049 37.6926 193.182 37.8324 193.344 37.9299C193.506 38.0275 193.692 38.0791 193.882 38.0792C194.069 38.0779 194.252 38.0256 194.411 37.928C194.57 37.8304 194.7 37.6912 194.786 37.5255L203.107 24.457V42.4317C203.102 42.5656 203.126 42.699 203.177 42.8231C203.227 42.9472 203.304 43.0592 203.401 43.1516C203.539 43.2771 203.71 43.3597 203.894 43.389C204.078 43.4183 204.267 43.3932 204.437 43.3166C204.607 43.24 204.751 43.1154 204.851 42.9581C204.95 42.8008 205.002 42.6178 204.999 42.4317V21.3892C205.005 21.2666 204.988 21.1438 204.947 21.028C204.906 20.9122 204.842 20.8057 204.759 20.7146C204.677 20.6235 204.577 20.5495 204.466 20.4971C204.355 20.4447 204.234 20.4148 204.111 20.4091Z" fill="white"/>
<path d="M91.8265 63.7953C87.4996 63.4298 83.4167 63.081 83.4167 59.5536C83.4124 59.1849 83.4901 58.8199 83.6441 58.4849C84.4541 56.1259 87.7769 55.0738 90.3454 54.8966C90.4952 54.8966 90.6394 54.8966 90.7836 54.8966C90.9278 54.8966 91.0499 54.8966 91.1775 54.8966C95.7374 54.8966 98.4723 56.0705 99.3099 58.3797C99.3706 58.5657 99.4885 58.7279 99.6469 58.8433C99.8052 58.9586 99.996 59.0211 100.192 59.022C100.331 59.0239 100.469 58.9916 100.593 58.9279C100.717 58.8641 100.823 58.7709 100.902 58.6565C100.986 58.5233 101.034 58.3708 101.041 58.2138C101.049 58.0567 101.016 57.9003 100.946 57.7595C99.4764 53.7448 94.1731 53.1467 91.1386 53.1467C90.1316 53.1519 89.1271 53.2482 88.1375 53.4347C84.0158 54.3151 81.5528 56.6021 81.5528 59.5259C81.5528 64.7311 86.906 65.1631 91.6268 65.5396C95.9038 65.8829 99.9479 66.2041 99.9479 69.7149C99.9479 74.6986 92.3813 74.8592 91.5214 74.8592C90.989 74.858 90.4572 74.8228 89.9293 74.754C86.9837 74.4771 83.572 73.2976 82.8509 70.8002C82.8056 70.607 82.6958 70.4348 82.5395 70.3121C82.3833 70.1893 82.1899 70.1232 81.991 70.1247C81.8481 70.1242 81.707 70.157 81.5789 70.2205C81.4509 70.2839 81.3394 70.3762 81.2532 70.4901C81.1717 70.5999 81.1175 70.7275 81.0954 70.8623C81.0732 70.9972 81.0836 71.1354 81.1256 71.2654C82.4737 76.1494 89.4467 76.5315 91.5325 76.5315C96.5252 76.5315 101.812 74.7319 101.812 69.6761C101.812 64.6204 96.5085 64.1885 91.8265 63.7953Z" fill="white"/>
<path d="M124.029 54.3371V64.3489H109.606V54.3371C109.606 54.0919 109.508 53.8566 109.335 53.6832C109.161 53.5098 108.925 53.4124 108.679 53.4124C108.434 53.4124 108.198 53.5098 108.024 53.6832C107.851 53.8566 107.753 54.0919 107.753 54.3371V75.2744C107.753 75.5196 107.851 75.7548 108.024 75.9283C108.198 76.1017 108.434 76.1991 108.679 76.1991C108.925 76.1991 109.161 76.1017 109.335 75.9283C109.508 75.7548 109.606 75.5196 109.606 75.2744V66.06L124.029 66.0932V75.2688C124.029 75.5185 124.128 75.7579 124.305 75.9345C124.482 76.111 124.722 76.2102 124.972 76.2102C125.222 76.2102 125.462 76.111 125.639 75.9345C125.816 75.7579 125.915 75.5185 125.915 75.2688V54.3371C125.915 54.0875 125.816 53.848 125.639 53.6715C125.462 53.4949 125.222 53.3958 124.972 53.3958C124.722 53.3958 124.482 53.4949 124.305 53.6715C124.128 53.848 124.029 54.0875 124.029 54.3371Z" fill="white"/>
<path d="M143.85 53.2408C143.778 53.0886 143.665 52.9601 143.522 52.8707C143.379 52.7813 143.214 52.7349 143.045 52.7369C142.873 52.7345 142.703 52.7805 142.555 52.8695C142.407 52.9586 142.286 53.0872 142.208 53.2408L131.113 75.0474C131.033 75.1865 130.991 75.344 130.991 75.5043C130.991 75.6646 131.033 75.822 131.113 75.9611C131.201 76.0999 131.322 76.2146 131.465 76.2949C131.609 76.3751 131.77 76.4184 131.934 76.4207C132.1 76.4205 132.262 76.3736 132.403 76.2854C132.543 76.1973 132.655 76.0715 132.727 75.9224L135.728 69.9585H150.274L153.28 75.9279C153.352 76.0755 153.464 76.2 153.603 76.2872C153.743 76.3743 153.904 76.4206 154.068 76.4207C154.232 76.4184 154.394 76.3751 154.537 76.2949C154.68 76.2146 154.801 76.0999 154.889 75.9611C154.969 75.822 155.011 75.6646 155.011 75.5043C155.011 75.344 154.969 75.1865 154.889 75.0474L143.85 53.2408ZM149.397 68.192H136.638L143.034 55.5555L149.397 68.192Z" fill="white"/>
<path d="M169.14 53.3238H161.23C161.106 53.3223 160.982 53.3456 160.867 53.3924C160.752 53.4392 160.647 53.5085 160.56 53.5962C160.472 53.6839 160.402 53.7883 160.355 53.9032C160.309 54.0181 160.285 54.1411 160.287 54.2652V75.3741C160.284 75.5017 160.309 75.6284 160.361 75.7452C160.413 75.8619 160.49 75.9659 160.586 76.0496C160.76 76.1957 160.981 76.2744 161.208 76.2711C161.331 76.2741 161.454 76.2522 161.569 76.2066C161.683 76.1609 161.788 76.0926 161.875 76.0057C161.963 75.9188 162.032 75.8151 162.078 75.7008C162.125 75.5865 162.147 75.4641 162.145 75.3408V69.2939H169.179C174.771 69.2939 178.382 66.2594 178.382 61.5691C178.377 57.4714 175.204 53.3238 169.14 53.3238ZM176.468 61.5802C176.492 62.3021 176.369 63.0213 176.108 63.6949C175.847 64.3685 175.453 64.9826 174.948 65.5007C173.656 66.8186 171.653 67.5164 169.157 67.5164H162.14V55.1069H169.174C173.878 55.1069 176.468 58.4404 176.468 61.5802Z" fill="white"/>
<path d="M201.676 55.1068C201.794 55.1105 201.911 55.0905 202.021 55.0478C202.131 55.0052 202.231 54.9408 202.316 54.8586C202.4 54.7764 202.467 54.678 202.512 54.5694C202.558 54.4608 202.581 54.3441 202.58 54.2263C202.582 54.1118 202.561 53.998 202.518 53.8918C202.475 53.7856 202.411 53.6892 202.33 53.6084C202.248 53.5277 202.151 53.4643 202.045 53.422C201.938 53.3797 201.824 53.3595 201.709 53.3625H186.065C185.897 53.3581 185.73 53.3873 185.573 53.4485C185.417 53.5097 185.274 53.6015 185.153 53.7187C185.033 53.8359 184.937 53.976 184.872 54.1307C184.806 54.2854 184.773 54.4516 184.773 54.6195V74.8922C184.769 75.0627 184.8 75.2322 184.864 75.3904C184.927 75.5487 185.022 75.6924 185.143 75.813C185.264 75.9336 185.408 76.0285 185.566 76.092C185.725 76.1555 185.895 76.1863 186.065 76.1825H201.67C201.911 76.1825 202.143 76.0868 202.314 75.9165C202.484 75.7462 202.58 75.5152 202.58 75.2743C202.58 75.0335 202.484 74.8025 202.314 74.6322C202.143 74.4619 201.911 74.3662 201.67 74.3662H186.626V65.7499H200.977C201.097 65.7595 201.219 65.744 201.333 65.7046C201.447 65.6651 201.552 65.6024 201.641 65.5205C201.73 65.4386 201.801 65.3391 201.849 65.2285C201.898 65.1179 201.923 64.9984 201.923 64.8777C201.923 64.7569 201.898 64.6375 201.849 64.5269C201.801 64.4162 201.73 64.3168 201.641 64.2349C201.552 64.153 201.447 64.0903 201.333 64.0508C201.219 64.0114 201.097 63.9959 200.977 64.0055H186.626V55.1068H201.676Z" fill="white"/>
</svg>
