<svg width="65" height="65" viewBox="0 0 65 65" fill="none" xmlns="http://www.w3.org/2000/svg">
<g clip-path="url(#clip0)">
<path d="M32.5133 52.1726C35.0999 52.1726 37.6202 51.6685 40.0211 50.6737C44.876 48.6707 48.6432 44.8902 50.6595 40.0353C52.6757 35.1804 52.6757 29.848 50.6595 24.9931C47.6086 17.6179 40.4721 12.8558 32.4867 12.8558C29.9001 12.8558 27.3798 13.3599 24.9789 14.3548C14.964 18.4934 10.1887 30.0204 14.3405 40.0353C17.3914 47.3973 24.5279 52.1726 32.5133 52.1726ZM25.987 16.7822C28.0696 15.92 30.2583 15.4823 32.4867 15.4823C39.3977 15.4823 45.579 19.6076 48.232 26.0012C49.9697 30.2062 49.9697 34.8356 48.232 39.0272C46.4943 43.2322 43.2179 46.4953 39.013 48.2462C36.9304 49.1084 34.7417 49.5462 32.5133 49.5462C25.6023 49.5462 19.4209 45.4208 16.768 39.0272C13.1732 30.3521 17.3118 20.3637 25.987 16.7822Z" fill="#A11D54"/>
<path d="M1.91145 43.5107C2.11042 44.0413 2.61448 44.3862 3.14507 44.3862C3.29099 44.3862 3.4369 44.3597 3.58281 44.3066C4.25931 44.0678 4.61746 43.3117 4.3787 42.622C0.49212 31.7581 3.07875 19.8862 11.1437 11.6355C16.7149 5.93164 24.183 2.73483 32.1551 2.64198C40.114 2.54912 47.6616 5.56022 53.3655 11.1314L50.0095 11.1712C49.2799 11.1845 48.7095 11.7681 48.7095 12.4977C48.7228 13.214 49.3065 13.7976 50.0228 13.7976H50.036L56.5623 13.7181C56.9072 13.7181 57.2388 13.5721 57.4908 13.3201C57.7296 13.0681 57.8622 12.7365 57.8622 12.3916L57.7826 5.86531C57.7694 5.13575 57.1857 4.53884 56.4562 4.56537C55.7266 4.57863 55.1562 5.16228 55.1562 5.89184L55.196 9.24783C48.9881 3.18583 40.8037 -0.0905664 32.1286 0.00228695C23.4534 0.12167 15.3221 3.58377 9.26013 9.79169C4.92255 14.2354 1.95124 19.7933 0.691091 25.8421C-0.542532 31.7449 -0.11806 37.8467 1.91145 43.5107Z" fill="#535353"/>
<path d="M53.8563 53.3796C42.3557 65.1587 23.4136 65.371 11.6345 53.8837L14.9905 53.8439C15.7201 53.8306 16.2905 53.247 16.2905 52.5174C16.2772 51.8011 15.6935 51.2175 14.9772 51.2175H14.964L8.43771 51.2971C7.70815 51.3103 7.13777 51.894 7.13777 52.6235L7.21736 59.1498C7.23062 59.8661 7.81427 60.4497 8.53057 60.4497H8.54383C9.2734 60.4365 9.84378 59.8528 9.84378 59.1233L9.80399 55.7673C16.118 61.9221 24.3024 64.9996 32.5 64.9996C40.9497 64.9996 49.386 61.7364 55.7399 55.2367C60.0774 50.793 63.0488 45.2351 64.3089 39.1863C65.5425 33.2968 65.1181 27.1817 63.0886 21.5309C62.8498 20.8544 62.0937 20.4963 61.4039 20.735C60.7274 20.9738 60.3693 21.7299 60.608 22.4197C64.5079 33.257 61.9213 45.1289 53.8563 53.3796Z" fill="#535353"/>
</g>
<defs>
<clipPath id="clip0">
<rect width="65" height="65" fill="white"/>
</clipPath>
</defs>
</svg>
