<svg width="65" height="65" viewBox="0 0 65 65" fill="none" xmlns="http://www.w3.org/2000/svg">
<g clip-path="url(#clip0)">
<path d="M31.8267 0.55057L28.5764 1.8905C26.8385 2.6069 26.0159 4.61017 26.7323 6.33483L27.5681 8.35137C25.9363 9.55863 24.5168 10.9914 23.2963 12.6232L21.2797 11.7874C20.4439 11.4425 19.5153 11.4425 18.6795 11.7874C17.8437 12.1324 17.1803 12.7957 16.8354 13.6315L15.4822 16.8818C14.7658 18.6198 15.5883 20.6098 17.3263 21.3262L20.3113 22.56C20.9879 22.8386 21.7441 22.5202 22.0227 21.8436C22.3013 21.167 21.9829 20.4108 21.3063 20.1322L18.3213 18.8984C17.9233 18.7392 17.7375 18.2748 17.8967 17.8768L19.2499 14.6265C19.3295 14.4408 19.4755 14.2816 19.6745 14.202C19.8602 14.1224 20.0725 14.1224 20.2715 14.202L23.2565 15.4358C23.8402 15.6746 24.5035 15.4756 24.8485 14.9582C26.1884 12.9416 27.8865 11.2435 29.9031 9.90357C30.4205 9.55863 30.6327 8.88203 30.3939 8.31157L29.1601 5.32657C29.0009 4.92857 29.1867 4.4775 29.5847 4.30503L32.835 2.9651C33.0207 2.8855 33.233 2.8855 33.432 2.9651C33.6177 3.0447 33.7769 3.19063 33.8565 3.38963L35.0903 6.37463C35.3291 6.95837 35.9394 7.29003 36.5629 7.15737C38.9244 6.67977 41.3389 6.69303 43.7004 7.15737C44.3107 7.27677 44.9342 6.9451 45.173 6.37463L46.4068 3.38963C46.566 2.99164 47.0303 2.8059 47.4283 2.9651L50.6787 4.3183C50.8644 4.3979 51.0236 4.54383 51.1032 4.74283C51.1828 4.92857 51.1828 5.14083 51.1032 5.33983L49.8694 8.32483C49.6306 8.90856 49.8296 9.5719 50.347 9.91683C52.3635 11.2568 54.0617 12.9549 55.4016 14.9714C55.7465 15.4888 56.4231 15.7011 56.9936 15.4623L59.9786 14.2285C60.1776 14.1489 60.3766 14.1489 60.5756 14.2285C60.7613 14.3081 60.9205 14.454 61.0001 14.653L62.34 17.9034C62.4197 18.0891 62.4197 18.3014 62.34 18.5004C62.2604 18.6861 62.1145 18.8453 61.9155 18.9249L58.9305 20.1587C58.3468 20.3975 58.0284 21.0078 58.1478 21.6313C58.6254 23.9928 58.6121 26.4073 58.1478 28.7688C58.0284 29.379 58.3601 30.0026 58.9305 30.2414L61.9155 31.4752C62.3135 31.6344 62.4992 32.0987 62.34 32.4967L60.9869 35.747C60.8277 36.145 60.3633 36.3307 59.9653 36.1715L56.9803 34.9377C56.3966 34.6989 55.7333 34.8979 55.3883 35.4153C54.0484 37.4319 52.3503 39.13 50.3337 40.4699C49.8163 40.8149 49.6041 41.4915 49.8429 42.0619L51.0767 45.0469C51.1563 45.2327 51.1563 45.4449 51.0767 45.6439C50.9971 45.8297 50.8511 45.9889 50.6521 46.0685L47.4018 47.4084C47.2161 47.488 47.0038 47.488 46.8048 47.4084C46.6191 47.3288 46.4599 47.1829 46.3803 46.9839L45.1465 43.9989C44.8679 43.3223 44.0984 43.0039 43.4351 43.2825C42.7585 43.5611 42.4401 44.3305 42.7187 44.9939L43.9525 47.9789C44.2974 48.8147 44.9607 49.478 45.7965 49.8229C46.2211 49.9954 46.6589 50.0883 47.0967 50.0883C47.5345 50.0883 47.9855 49.9954 48.3968 49.8229L51.6471 48.483C52.4829 48.1381 53.1463 47.4747 53.4912 46.6389C53.8361 45.8031 53.8361 44.8745 53.4912 44.0387L52.6554 42.0221C54.2872 40.8149 55.7067 39.3821 56.9273 37.7503L58.9438 38.5861C60.6817 39.3025 62.6717 38.4799 63.3881 36.742L64.7413 33.4917C65.4577 31.7538 64.6352 29.7638 62.8973 29.0474L60.8807 28.2116C61.1726 26.2083 61.1726 24.1785 60.8807 22.1752L62.8973 21.3394C63.7331 20.9945 64.3964 20.3312 64.7413 19.4954C65.0863 18.6596 65.0863 17.7309 64.7413 16.8951L63.4014 13.6448C63.0564 12.809 62.3931 12.1456 61.5573 11.8007C60.7215 11.4558 59.7929 11.4558 58.9571 11.8007L56.9405 12.6365C55.7333 11.0047 54.3005 9.5719 52.6819 8.36463L53.5177 6.3481C53.8627 5.5123 53.8627 4.58363 53.5177 3.74783C53.1728 2.91203 52.5095 2.2487 51.6737 1.90377L48.4233 0.55057C46.6854 -0.16583 44.6954 0.656703 43.979 2.39464L43.1432 4.41117C41.1399 4.1193 39.1101 4.1193 37.1069 4.41117L36.2711 2.39464C35.9261 1.55884 35.2628 0.895503 34.427 0.55057C33.5912 0.205637 32.6625 0.205637 31.8267 0.55057Z" fill="#535353"/>
<path d="M50.798 25.1073C50.7582 19.2434 45.969 14.5072 40.1184 14.5072C40.0918 14.5072 40.0653 14.5072 40.0388 14.5072C37.1864 14.5337 34.5066 15.6614 32.5033 17.6912C30.5 19.721 29.4122 22.4141 29.4254 25.2665C29.4254 25.9829 30.0224 26.5666 30.7388 26.5666H30.7521C31.4818 26.5666 32.0655 25.9696 32.0522 25.2399C32.039 23.0907 32.8615 21.0609 34.3739 19.522C35.8863 17.9831 37.9028 17.134 40.052 17.1207C40.0653 17.1207 40.0918 17.1207 40.1051 17.1207C44.5229 17.1207 48.1314 20.7027 48.158 25.1205C48.1845 29.5649 44.6025 33.1999 40.1582 33.2397C39.4285 33.2397 38.8448 33.8367 38.858 34.5664C38.858 35.2828 39.455 35.8665 40.1714 35.8665C40.1714 35.8665 40.1714 35.8665 40.1847 35.8665C46.0884 35.8267 50.8378 30.9977 50.798 25.1073Z" fill="#535353"/>
<path d="M17.9498 64.7082H20.5103C22.0757 64.7082 23.3493 63.4346 23.3493 61.8692V60.5558C24.6229 60.2108 25.8435 59.7067 26.9844 59.0434L27.913 59.972C28.4437 60.5027 29.1601 60.8078 29.9163 60.8078C30.6725 60.8078 31.3889 60.5159 31.9196 59.972L33.7238 58.1678C34.2545 57.6371 34.5596 56.9207 34.5596 56.1645C34.5596 55.4083 34.2678 54.6919 33.7238 54.1612L32.7952 53.2326C33.4585 52.0916 33.9626 50.8711 34.3076 49.5975H35.621C37.1864 49.5975 38.46 48.3239 38.46 46.7584V44.198C38.46 42.6325 37.1864 41.3589 35.621 41.3589H34.3076C33.9626 40.0853 33.4585 38.8648 32.7952 37.7238L33.7238 36.7952C34.2545 36.2645 34.5596 35.5481 34.5596 34.7919C34.5596 34.0357 34.2678 33.3193 33.7238 32.7886L31.9196 30.9844C31.3889 30.4537 30.6725 30.1486 29.9163 30.1486C29.1601 30.1486 28.4437 30.4404 27.913 30.9844L26.9844 31.913C25.8435 31.2497 24.6229 30.7456 23.3493 30.4006V29.0872C23.3493 27.5218 22.0757 26.2482 20.5103 26.2482H17.9498C16.3843 26.2482 15.1107 27.5218 15.1107 29.0872V30.4006C13.8371 30.7456 12.6166 31.2497 11.4757 31.913L10.547 30.9844C10.0163 30.4537 9.29993 30.1486 8.54373 30.1486C7.78753 30.1486 7.07113 30.4404 6.54046 30.9844L4.7362 32.7886C3.63506 33.8898 3.63506 35.694 4.7362 36.7952L5.66486 37.7238C5.00153 38.8648 4.4974 40.0853 4.15246 41.3589H2.83906C1.2736 41.3589 0 42.6325 0 44.198V46.7584C0 48.3239 1.2736 49.5975 2.83906 49.5975H4.15246C4.4974 50.8711 5.00153 52.0916 5.66486 53.2326L4.7362 54.1612C3.63506 55.2624 3.63506 57.0666 4.7362 58.1678L6.54046 59.972C7.07113 60.5027 7.78753 60.8078 8.54373 60.8078C9.29993 60.8078 10.0163 60.5159 10.547 59.972L11.4757 59.0434C12.6166 59.7067 13.8371 60.2108 15.1107 60.5558V61.8692C15.124 63.4346 16.3976 64.7082 17.9498 64.7082ZM12.0196 56.2972C11.7941 56.1512 11.542 56.0716 11.2899 56.0716C10.945 56.0716 10.6133 56.2043 10.3613 56.4564L8.70293 58.1147C8.64986 58.1678 8.5968 58.181 8.557 58.181C8.51719 58.181 8.46413 58.1678 8.41106 58.1147L6.6068 56.3104C6.5272 56.2308 6.5272 56.0982 6.6068 56.0186L8.26513 54.3602C8.70293 53.9224 8.78253 53.2193 8.42433 52.7019C7.46913 51.2824 6.81906 49.7036 6.4874 48.032C6.368 47.4218 5.82406 46.9707 5.20053 46.9707H2.85233C2.73293 46.9707 2.64006 46.8778 2.64006 46.7584V44.198C2.64006 44.0786 2.73293 43.9857 2.85233 43.9857H5.20053C5.82406 43.9857 6.368 43.5479 6.4874 42.9244C6.81906 41.2528 7.46913 39.674 8.42433 38.2545C8.76926 37.7371 8.70293 37.034 8.26513 36.5962L6.6068 34.9378C6.5272 34.8582 6.5272 34.7256 6.6068 34.646L8.41106 32.8417C8.46413 32.7886 8.51719 32.7754 8.557 32.7754C8.5968 32.7754 8.64986 32.7886 8.70293 32.8417L10.3613 34.5266C10.7991 34.9644 11.5022 35.044 12.0196 34.6858C13.4391 33.7306 15.0179 33.0805 16.6895 32.7488C17.2997 32.6294 17.7508 32.0855 17.7508 31.462V29.1138C17.7508 28.9944 17.8437 28.9015 17.9631 28.9015H20.5235C20.6429 28.9015 20.7358 28.9944 20.7358 29.1138V31.462C20.7358 32.0855 21.1736 32.6294 21.7971 32.7488C23.4687 33.0805 25.0475 33.7306 26.467 34.6858C26.9844 35.0307 27.6875 34.9644 28.1253 34.5266L29.7836 32.8682C29.8367 32.8152 29.8898 32.8019 29.9296 32.8019C29.9694 32.8019 30.0224 32.8152 30.0755 32.8682L31.8798 34.6725C31.9328 34.7256 31.9461 34.7786 31.9461 34.8184C31.9461 34.8582 31.9328 34.9113 31.8798 34.9644L30.2214 36.6227C29.7836 37.0605 29.7041 37.7636 30.0623 38.281C31.0174 39.7006 31.6675 41.2793 31.9992 42.9509C32.1186 43.5612 32.6625 44.0122 33.286 44.0122H35.6342C35.7536 44.0122 35.8465 44.1051 35.8465 44.2245V46.785C35.8465 46.9044 35.7536 46.9972 35.6342 46.9972H33.286C32.6625 46.9972 32.1186 47.435 31.9992 48.0586C31.6675 49.7302 31.0174 51.3089 30.0623 52.7284C29.7173 53.2458 29.7836 53.949 30.2214 54.3868L31.8798 56.0451C31.9328 56.0982 31.9461 56.1512 31.9461 56.191C31.9461 56.2308 31.9328 56.2839 31.8798 56.337L30.0755 58.1412C30.0224 58.1943 29.9694 58.2076 29.9296 58.2076C29.8898 58.2076 29.8367 58.1943 29.7836 58.1412L28.1253 56.4829C27.6875 56.0451 26.9844 55.9655 26.467 56.3237C25.0475 57.2789 23.4687 57.929 21.7971 58.2606C21.1869 58.38 20.7358 58.924 20.7358 59.5475V61.8957C20.7358 62.0151 20.6429 62.1079 20.5235 62.1079H17.9631C17.8437 62.1079 17.7508 62.0151 17.7508 61.8957V59.5475C17.7508 58.924 17.313 58.38 16.6895 58.2606C15.0179 57.9024 13.4391 57.2524 12.0196 56.2972Z" fill="#A11D54"/>
<path d="M27.0242 45.4979C27.0242 41.1995 23.5218 37.6971 19.2234 37.6971C14.925 37.6971 11.4359 41.1995 11.4359 45.4979C11.4359 49.7963 14.9382 53.2987 19.2366 53.2987C23.535 53.2987 27.0242 49.7963 27.0242 45.4979ZM14.0626 45.4979C14.0626 42.6456 16.3843 40.3239 19.2366 40.3239C22.089 40.3239 24.4106 42.6456 24.4106 45.4979C24.4106 48.3503 22.089 50.6719 19.2366 50.6719C16.3843 50.6719 14.0626 48.337 14.0626 45.4979Z" fill="#A11D54"/>
</g>
<defs>
<clipPath id="clip0">
<rect width="65" height="65" fill="white"/>
</clipPath>
</defs>
</svg>
