<svg width="20" height="20" viewBox="0 0 20 20" fill="none" xmlns="http://www.w3.org/2000/svg">
<path d="M16.0225 18.4433V1.5526C16.0225 0.698672 15.3279 0 14.4699 0H5.53014C4.67621 0 3.97754 0.694586 3.97754 1.5526V18.4474C3.97754 19.3013 4.67213 20 5.53014 20H14.4699C15.3238 19.9959 16.0225 19.3013 16.0225 18.4433ZM4.97856 3.59959H15.0174V14.9663H4.97856V3.59959ZM5.53014 1.00102H14.4699C14.7722 1.00102 15.0215 1.24617 15.0215 1.5526V2.59857H4.97856V1.5526C4.97856 1.24617 5.22779 1.00102 5.53014 1.00102ZM4.97856 18.4433V15.9632H15.0174V18.4433C15.0174 18.7457 14.7722 18.9949 14.4658 18.9949H5.53014C5.22779 18.9949 4.97856 18.7497 4.97856 18.4433Z" fill="#A5A5A5"/>
<path d="M11.0133 17.0215H8.98266C8.70482 17.0215 8.4801 17.2462 8.4801 17.524C8.4801 17.8019 8.70482 18.0266 8.98266 18.0266H11.0133C11.2911 18.0266 11.5159 17.8019 11.5159 17.524C11.5159 17.2462 11.2911 17.0215 11.0133 17.0215Z" fill="#A5A5A5"/>
</svg>
