<svg width="65" height="65" viewBox="0 0 65 65" fill="none" xmlns="http://www.w3.org/2000/svg">
<path d="M61.0309 43.0742C54.5287 38.6078 45.9044 36.5597 42.8445 35.9428L41.3269 23.3455C41.2776 20.5201 38.958 18.2375 36.1202 18.2375C33.3195 18.2375 31.0616 20.3967 30.9259 23.1728C30.9259 23.2222 30.9135 23.2715 30.9135 23.3209V30.7854L30.7901 48.9472L28.8777 47.479C26.5335 45.4308 21.006 42.9139 16.5766 47.7751C16.0954 48.3056 16.046 49.0829 16.4655 49.6628C16.5889 49.8356 19.5748 54.0182 24.3249 58.5216C24.9295 59.1015 25.8919 59.0645 26.4594 58.4599C27.027 57.8554 27.0023 56.893 26.3978 56.3254C23.2515 53.3396 20.8826 50.4648 19.7228 48.9719C22.9924 46.5289 26.5088 49.4037 26.916 49.7739C26.9406 49.7985 26.9653 49.8109 26.99 49.8356L31.3577 53.2039C31.8142 53.5493 32.4311 53.6234 32.937 53.3643C33.4552 53.1175 33.776 52.587 33.7883 52.0194L33.9364 30.7978V23.4072C33.9364 23.3949 33.9364 23.3826 33.9364 23.3579C33.9734 22.1734 34.9234 21.2481 36.1202 21.2481C37.317 21.2481 38.3041 22.2228 38.3041 23.4319C38.3041 23.4936 38.3041 23.5553 38.3164 23.617L39.9697 37.3987C40.0437 38.065 40.562 38.5955 41.2159 38.7065C41.3146 38.7189 51.5059 40.4709 58.7854 45.2087C59.0568 46.9608 59.6737 52.2168 58.4523 57.0534C58.2425 57.8677 58.736 58.682 59.5504 58.8918C59.6737 58.9288 59.7971 58.9411 59.9205 58.9411C60.5991 58.9411 61.216 58.4846 61.3887 57.7937C63.0421 51.2298 61.7095 44.3081 61.6602 44.0243C61.5738 43.6418 61.3517 43.2963 61.0309 43.0742Z" fill="#535353"/>
<path d="M14.7135 6.91115C7.6314 6.91115 1.85715 12.6731 1.85715 19.7675C1.85715 26.8496 7.61906 32.6239 14.7135 32.6239C21.1047 32.6239 26.4471 28.0464 27.4218 21.7416C27.5205 21.0877 27.5699 20.4214 27.5699 19.7675C27.5699 18.9285 26.8913 18.2499 26.0523 18.2499C25.2133 18.2499 24.5347 18.9285 24.5347 19.7675C24.5347 20.2734 24.4977 20.7792 24.4236 21.2851C23.6957 26.023 19.513 29.601 14.7135 29.601C9.29705 29.601 4.87999 25.1963 4.87999 19.7675C4.87999 14.3387 9.28471 9.934 14.7135 9.934C17.6253 9.934 20.3767 11.2295 22.2274 13.438L15.0096 20.6065L10.938 16.5102C10.3458 15.918 9.39576 15.918 8.80353 16.4979C8.2113 17.0901 8.2113 18.0402 8.79119 18.6324L13.9239 23.8021C14.2076 24.0859 14.5901 24.2463 14.9973 24.2463C15.3921 24.2463 15.7746 24.0859 16.0584 23.8021L31.6908 8.25601C32.283 7.66378 32.283 6.71374 31.7031 6.12151C31.1109 5.52928 30.1609 5.52928 29.5686 6.10917L24.3743 11.2789C21.956 8.52745 18.4396 6.91115 14.7135 6.91115Z" fill="#A11D54"/>
</svg>
